<?xml version="1.0" encoding="UTF-8" standalone="no"?>
<!-- Created with Inkscape (http://www.inkscape.org/) -->

<svg
   width="11.493147mm"
   height="11.209467mm"
   viewBox="0 0 11.493147 11.209467"
   version="1.1"
   id="svg494"
   inkscape:version="1.1.1 (c3084ef, 2021-09-22)"
   sodipodi:docname="test.svg"
   xmlns:inkscape="http://www.inkscape.org/namespaces/inkscape"
   xmlns:sodipodi="http://sodipodi.sourceforge.net/DTD/sodipodi-0.dtd"
   xmlns="http://www.w3.org/2000/svg"
   xmlns:svg="http://www.w3.org/2000/svg">
  <sodipodi:namedview
     id="namedview496"
     pagecolor="#ffffff"
     bordercolor="#666666"
     borderopacity="1.0"
     inkscape:pageshadow="2"
     inkscape:pageopacity="0.0"
     inkscape:pagecheckerboard="0"
     inkscape:document-units="mm"
     showgrid="false"
     inkscape:zoom="3.0634345"
     inkscape:cx="-10.282577"
     inkscape:cy="30.031653"
     inkscape:window-width="1312"
     inkscape:window-height="786"
     inkscape:window-x="0"
     inkscape:window-y="25"
     inkscape:window-maximized="0"
     inkscape:current-layer="layer1" />
  <defs
     id="defs491" />
  <g
     inkscape:label="Layer 1"
     inkscape:groupmode="layer"
     id="layer1"
     transform="translate(-141.17364,-134.46974)">
    <g
       id="g43"
       transform="matrix(0.35277777,0,0,-0.35277777,146.91968,134.46974)">
      <path
         d="m 0,0 c -8.995,0 -16.288,-7.293 -16.288,-16.29 0,-7.197 4.667,-13.302 11.14,-15.457 0.815,-0.149 1.112,0.354 1.112,0.786 0,0.386 -0.014,1.411 -0.022,2.77 -4.531,-0.984 -5.487,2.184 -5.487,2.184 -0.741,1.881 -1.809,2.382 -1.809,2.382 -1.479,1.011 0.112,0.991 0.112,0.991 1.635,-0.116 2.495,-1.679 2.495,-1.679 1.453,-2.489 3.813,-1.77 4.741,-1.354 0.148,1.053 0.568,1.771 1.034,2.178 -3.617,0.411 -7.42,1.809 -7.42,8.051 0,1.778 0.635,3.232 1.677,4.371 -0.168,0.412 -0.727,2.068 0.159,4.311 0,0 1.368,0.438 4.48,-1.67 1.299,0.361 2.693,0.542 4.078,0.548 1.383,-0.006 2.777,-0.187 4.078,-0.548 3.11,2.108 4.475,1.67 4.475,1.67 0.889,-2.243 0.33,-3.899 0.162,-4.311 1.044,-1.139 1.675,-2.593 1.675,-4.371 0,-6.258 -3.809,-7.635 -7.438,-8.038 0.585,-0.503 1.106,-1.497 1.106,-3.017 0,-2.177 -0.02,-3.934 -0.02,-4.468 0,-0.436 0.293,-0.943 1.12,-0.784 6.468,2.159 11.131,8.26 11.131,15.455 C 16.291,-7.293 8.997,0 0,0"
         style="fill:#1b1817;fill-opacity:1;fill-rule:evenodd;stroke:none"
         id="path45" />
    </g>
    <g
       id="g12"
       transform="matrix(3.9894848e-4,0,0,-3.9894848e-4,120.4132,159.34545)">
      <path
         d="M 40000,0 H 0 V 40000 H 40000 V 0"
         style="fill:#ffffff;fill-opacity:1;fill-rule:evenodd;stroke:none"
         id="path14" />
      <path
         d="m 20000,35890 c 8775.8,0 15890,-7114.2 15890,-15890 0,-8775.8 -7114.2,-15890 -15890,-15890 -8775.8,0 -15890,7114.2 -15890,15890 0,8775.8 7114.2,15890 15890,15890"
         style="fill:#55acee;fill-opacity:1;fill-rule:nonzero;stroke:none"
         id="path16" />
      <path
         d="m 28898.4,25518.5 c -667,-294 -1373.8,-488.1 -2097.5,-575.8 763.3,456.3 1333.7,1175.6 1604,2022.7 -716.2,-425.9 -1500.4,-725.7 -2318.1,-886.1 -1381.4,1470.2 -3693.2,1542.2 -5163.4,160.7 -733.7,-689.5 -1150.4,-1651.3 -1151.5,-2658.2 0.5,-280.5 31.9,-560.1 93.5,-833.8 -2933.6,143.4 -5669.5,1522.2 -7530,3794.9 -962.7,-1663 -472.4,-3787.5 1121.7,-4860.5 -580.5,18.4 -1148.3,174.8 -1656.3,456.2 v -48.6 c 1.3,-1738.2 1227.3,-3234.7 2931.2,-3578.1 -537.9,-144.3 -1101.4,-166.1 -1648.8,-63.5 476.8,-1487.8 1847.8,-2507 3409.8,-2535 -1293.6,-1011.4 -2889.4,-1559.2 -4531.5,-1555.3 -291.1,0.3 -582,17.8 -871.1,52.3 1671.8,-1076.9 3619.5,-1647 5608.2,-1641.3 6729.9,0 10390.2,5563.4 10390.2,10386.5 0,160.7 0,317.8 0,474.8 710.4,517.1 1323.1,1156.4 1809.6,1888.1"
         style="fill:#ffffff;fill-opacity:1;fill-rule:nonzero;stroke:none"
         id="path18" />
    </g>
  </g>
</svg>
