<?xml version="1.0" encoding="UTF-8" standalone="no"?>
<!-- Created with Inkscape (http://www.inkscape.org/) -->

<svg
   width="11.493147mm"
   height="11.209467mm"
   viewBox="0 0 11.493147 11.209467"
   version="1.1"
   id="svg494"
   inkscape:version="1.1.1 (c3084ef, 2021-09-22)"
   sodipodi:docname="twitter_test.svg"
   xmlns:inkscape="http://www.inkscape.org/namespaces/inkscape"
   xmlns:sodipodi="http://sodipodi.sourceforge.net/DTD/sodipodi-0.dtd"
   xmlns="http://www.w3.org/2000/svg"
   xmlns:svg="http://www.w3.org/2000/svg">
  <sodipodi:namedview
     id="namedview496"
     pagecolor="#ffffff"
     bordercolor="#666666"
     borderopacity="1.0"
     inkscape:pageshadow="2"
     inkscape:pageopacity="0.0"
     inkscape:pagecheckerboard="0"
     inkscape:document-units="mm"
     showgrid="false"
     inkscape:zoom="6.6735774"
     inkscape:cx="7.4173111"
     inkscape:cy="37.011633"
     inkscape:window-width="1312"
     inkscape:window-height="786"
     inkscape:window-x="0"
     inkscape:window-y="25"
     inkscape:window-maximized="0"
     inkscape:current-layer="layer1" />
  <defs
     id="defs491" />
  <g
     inkscape:label="Layer 1"
     inkscape:groupmode="layer"
     id="layer1"
     transform="translate(-141.17364,-134.46974)">
    <g
       id="g43"
       transform="matrix(0.35277777,0,0,-0.35277777,146.91968,134.46974)" />
    <g
       id="g12"
       transform="matrix(3.9894848e-4,0,0,-3.9894848e-4,123.78314,154.62753)">
      <path
         d="M 40000,0 H 0 V 40000 H 40000 V 0"
         style="fill:#ffffff;fill-opacity:1;fill-rule:evenodd;stroke:none"
         id="path14" />
      <path
         d="m 20000,35890 c 8775.8,0 15890,-7114.2 15890,-15890 0,-8775.8 -7114.2,-15890 -15890,-15890 -8775.8,0 -15890,7114.2 -15890,15890 0,8775.8 7114.2,15890 15890,15890"
         style="fill:#55acee;fill-opacity:1;fill-rule:nonzero;stroke:none"
         id="path16" />
      <path
         d="m 58000.542,22595.956 c 7852.14,0 14217.285,6209.424 14217.285,13869.465 0,7660.04 -6365.145,13869.465 -14217.285,13869.465 -7852.14,0 -14217.286,-6209.425 -14217.286,-13869.465 0,-7660.041 6365.146,-13869.465 14217.286,-13869.465"
         style="fill:#55acee;fill-opacity:1;fill-rule:nonzero;stroke:none;stroke-width:0.88376"
         id="path16-1" />
      <path
         d="m 28898.4,25518.5 c -667,-294 -1373.8,-488.1 -2097.5,-575.8 763.3,456.3 1333.7,1175.6 1604,2022.7 -716.2,-425.9 -1500.4,-725.7 -2318.1,-886.1 -1381.4,1470.2 -3693.2,1542.2 -5163.4,160.7 -733.7,-689.5 -1150.4,-1651.3 -1151.5,-2658.2 0.5,-280.5 31.9,-560.1 93.5,-833.8 -2933.6,143.4 -5669.5,1522.2 -7530,3794.9 -962.7,-1663 -472.4,-3787.5 1121.7,-4860.5 -580.5,18.4 -1148.3,174.8 -1656.3,456.2 v -48.6 c 1.3,-1738.2 1227.3,-3234.7 2931.2,-3578.1 -537.9,-144.3 -1101.4,-166.1 -1648.8,-63.5 476.8,-1487.8 1847.8,-2507 3409.8,-2535 -1293.6,-1011.4 -2889.4,-1559.2 -4531.5,-1555.3 -291.1,0.3 -582,17.8 -871.1,52.3 1671.8,-1076.9 3619.5,-1647 5608.2,-1641.3 6729.9,0 10390.2,5563.4 10390.2,10386.5 0,160.7 0,317.8 0,474.8 710.4,517.1 1323.1,1156.4 1809.6,1888.1"
         style="fill:#ffffff;fill-opacity:1;fill-rule:nonzero;stroke:none"
         id="path18" />
      <path
         d="m 67131.752,41599.683 c -651.16,-288.863 -1341.491,-477.357 -2048.955,-563.036 746.632,445.531 1302.324,1148.101 1566.706,1975.518 -700.124,-416.158 -1463.893,-709.912 -2264.38,-866.585 -1348.834,1436.963 -3605.868,1507.954 -5042.83,146.88 -714.809,-673.194 -1123.622,-1610.769 -1123.622,-2594.855 0,-274.174 24.481,-548.347 97.918,-815.175 -2864.13,146.877 -5537.322,1488.369 -7353.72,3706.235 -940.023,-1623.008 -460.22,-3698.893 1096.694,-4746.627 -567.931,0 -1121.174,171.357 -1618.112,445.531 v -48.957 c 0,-1698.898 1199.508,-3160.34 2861.683,-3495.713 -523.867,-146.877 -1074.661,-171.357 -1608.32,-73.437 465.115,-1454.099 1804.158,-2447.978 3329.249,-2474.904 -1263.157,-988.982 -2822.519,-1522.642 -4425.943,-1520.195 -283.965,0 -567.93,0 -849.447,48.961 1630.353,-1052.63 3534.878,-1608.321 5476.123,-1603.424 6572.817,0 10146.863,5434.507 10146.863,10144.413 0,146.877 0,310.892 0,462.668 692.775,506.729 1292.529,1130.963 1767.438,1845.772"
         style="fill:#ffffff;fill-opacity:1;fill-rule:nonzero;stroke:none;stroke-width:0.976617"
         id="path18-5" />
    </g>
  </g>
</svg>
